<svg width="19" height="17" viewBox="0 0 19 17" fill="none" xmlns="http://www.w3.org/2000/svg">
<path d="M9.75 16L9.39645 16.3536C9.59171 16.5488 9.90829 16.5488 10.1036 16.3536L9.75 16ZM2.29442 8.54442L1.94086 8.89797H1.94086L2.29442 8.54442ZM8.54442 2.29442L8.19086 2.64797V2.64797L8.54442 2.29442ZM9.75 3.5L9.39645 3.85355C9.59171 4.04882 9.90829 4.04882 10.1036 3.85355L9.75 3.5ZM10.9556 2.29442L10.602 1.94086V1.94086L10.9556 2.29442ZM10.1036 15.6464L2.64797 8.19086L1.94086 8.89797L9.39645 16.3536L10.1036 15.6464ZM16.852 8.19086L9.39645 15.6464L10.1036 16.3536L17.5591 8.89797L16.852 8.19086ZM8.19086 2.64797L9.39645 3.85355L10.1036 3.14645L8.89797 1.94086L8.19086 2.64797ZM10.1036 3.85355L11.3091 2.64797L10.602 1.94086L9.39645 3.14645L10.1036 3.85355ZM14.0806 0.5C12.7759 0.5 11.5246 1.01829 10.602 1.94086L11.3091 2.64797C12.0442 1.91294 13.0411 1.5 14.0806 1.5V0.5ZM18 5.41942C18 6.45891 17.5871 7.45583 16.852 8.19086L17.5591 8.89797C18.4817 7.9754 19 6.72413 19 5.41942H18ZM19 5.41942C19 2.7025 16.7975 0.5 14.0806 0.5V1.5C16.2452 1.5 18 3.25478 18 5.41942H19ZM5.41942 1.5C6.45891 1.5 7.45583 1.91294 8.19086 2.64797L8.89797 1.94086C7.9754 1.01829 6.72413 0.5 5.41942 0.5V1.5ZM1.5 5.41942C1.5 3.25478 3.25478 1.5 5.41942 1.5V0.5C2.7025 0.5 0.5 2.7025 0.5 5.41942H1.5ZM2.64797 8.19086C1.91294 7.45583 1.5 6.45891 1.5 5.41942H0.5C0.5 6.72413 1.01829 7.9754 1.94086 8.89797L2.64797 8.19086Z" fill="black"/>
</svg>
